<svg xmlns="http://www.w3.org/2000/svg" width="1280" height="720" viewBox="0 0 1280 720">
  <defs>
    <linearGradient id="lwall" x1="0" y1="0" x2="0" y2="1">
      <stop offset="0" stop-color="#6b4f3a"/>
      <stop offset="1" stop-color="#4a3526"/>
    </linearGradient>
    <linearGradient id="lglow" x1="0" y1="0" x2="0" y2="1">
      <stop offset="0" stop-color="#f6e6c8" stop-opacity="0.5"/>
      <stop offset="1" stop-color="#f6e6c8" stop-opacity="0"/>
    </linearGradient>
  </defs>
  <rect width="1280" height="720" fill="url(#lwall)"/>
  <rect width="1280" height="220" fill="url(#lglow)"/>
  <g opacity="0.9">
    <!-- bookshelves -->
    <g>
      <rect x="40" y="120" width="1200" height="480" rx="8" fill="#3a2a1d"/>
      <!-- shelves -->
      <g fill="#2e2116">
        <rect x="40" y="220" width="1200" height="14"/>
        <rect x="40" y="340" width="1200" height="14"/>
        <rect x="40" y="460" width="1200" height="14"/>
      </g>
      <!-- books -->
      <g>
        <g transform="translate(70,128)">
          <rect width="22" height="88" fill="#c0563f"/><rect x="26" width="18" height="88" fill="#d9a441"/><rect x="48" width="26" height="88" fill="#3f7d6e"/><rect x="78" width="16" height="88" fill="#7c5aa6"/><rect x="98" width="24" height="88" fill="#bf6b3a"/><rect x="126" width="20" height="88" fill="#4a6fa5"/>
        </g>
        <g transform="translate(300,128)">
          <rect width="20" height="88" fill="#4a6fa5"/><rect x="24" width="26" height="88" fill="#c0563f"/><rect x="54" width="16" height="88" fill="#d9a441"/><rect x="74" width="22" height="88" fill="#3f7d6e"/><rect x="100" width="18" height="88" fill="#7c5aa6"/><rect x="122" width="24" height="88" fill="#bf6b3a"/>
        </g>
        <g transform="translate(560,128)">
          <rect width="24" height="88" fill="#3f7d6e"/><rect x="28" width="18" height="88" fill="#bf6b3a"/><rect x="50" width="22" height="88" fill="#4a6fa5"/><rect x="76" width="16" height="88" fill="#c0563f"/><rect x="96" width="26" height="88" fill="#d9a441"/><rect x="126" width="20" height="88" fill="#7c5aa6"/>
        </g>
        <g transform="translate(840,128)">
          <rect width="18" height="88" fill="#d9a441"/><rect x="22" width="24" height="88" fill="#7c5aa6"/><rect x="50" width="20" height="88" fill="#c0563f"/><rect x="74" width="26" height="88" fill="#3f7d6e"/><rect x="104" width="16" height="88" fill="#4a6fa5"/><rect x="124" width="22" height="88" fill="#bf6b3a"/>
        </g>
        <g transform="translate(1080,128)">
          <rect width="22" height="88" fill="#bf6b3a"/><rect x="26" width="18" height="88" fill="#4a6fa5"/><rect x="48" width="24" height="88" fill="#d9a441"/><rect x="76" width="20" height="88" fill="#c0563f"/><rect x="100" width="16" height="88" fill="#7c5aa6"/><rect x="120" width="24" height="88" fill="#3f7d6e"/>
        </g>
        <!-- second row -->
        <g transform="translate(70,248)" opacity="0.92">
          <rect width="20" height="84" fill="#4a6fa5"/><rect x="24" width="24" height="84" fill="#d9a441"/><rect x="52" width="18" height="84" fill="#c0563f"/><rect x="74" width="22" height="84" fill="#7c5aa6"/><rect x="100" width="26" height="84" fill="#3f7d6e"/>
        </g>
        <g transform="translate(560,248)" opacity="0.92">
          <rect width="24" height="84" fill="#bf6b3a"/><rect x="28" width="18" height="84" fill="#4a6fa5"/><rect x="50" width="22" height="84" fill="#d9a441"/><rect x="76" width="20" height="84" fill="#c0563f"/><rect x="100" width="24" height="84" fill="#3f7d6e"/>
        </g>
        <g transform="translate(1080,248)" opacity="0.92">
          <rect width="18" height="84" fill="#7c5aa6"/><rect x="22" width="26" height="84" fill="#c0563f"/><rect x="52" width="20" height="84" fill="#d9a441"/><rect x="76" width="22" height="84" fill="#3f7d6e"/><rect x="102" width="16" height="84" fill="#4a6fa5"/>
        </g>
      </g>
    </g>
  </g>
  <rect width="1280" height="720" fill="#000" opacity="0.12"/>
</svg>
